# xmcd
#
# Track frame offsets:
#	150
#	19357
#	34929
#	45621
#	60776
#	73424
#	89047
#	108438
#	125334
#	139714
#	152363
#	168295
#	181916
#	199772
#	220397
#	243505
#	255346
#	269375
#	288219
#	306620
#
# Disc length: 4282 seconds
#
# Revision: 1
# Processed by: cddbd v1.5.2PL0 Copyright (c) Steve Scherf et al.
# Submitted via: audiograbber 1.83.01
#
DISCID=2510b814
DTITLE=ruzni - 100 nej country 3
DYEAR=2004
DGENRE=Country
TTITLE0=Dest
TTITLE1=Plava Jane
TTITLE2=Muj vecnej stin
TTITLE3=Jeste je cas
TTITLE4=Velka pardubicka
TTITLE5=Divoke kone
TTITLE6=Eldorado
TTITLE7=Dnes mame party
TTITLE8=Rodny dum
TTITLE9=Morska panna
TTITLE10=Koukam jak cela zeme vstava
TTITLE11=Nakladak
TTITLE12=Co se bude dit
TTITLE13=Shane
TTITLE14=Smes-Panenka,Severni vitr,Ovecka
TTITLE15=Uz zase sam
TTITLE16=Sundej z hodin zavazi
TTITLE17=Dzinova laska
TTITLE18=Az me andele
TTITLE19=Jizanskej rok
EXTD=
EXTT0=
EXTT1=
EXTT2=
EXTT3=
EXTT4=
EXTT5=
EXTT6=
EXTT7=
EXTT8=
EXTT9=
EXTT10=
EXTT11=
EXTT12=
EXTT13=
EXTT14=
EXTT15=
EXTT16=
EXTT17=
EXTT18=
EXTT19=
PLAYORDER=
